# xmcd CD database file
#
# Track frame offsets:
#	150
#	17982
#	36320
#	58542
#	74788
#	91354
#	105357
#	121360
#	138780
#	156684
#	175180
#	193761
#	210964
#	228101
#	246151
#	260118
#	269438
#	290223
#	306756
#	323518
#
# Disc length: 4556 seconds
#
# Revision: 1
# Processed by: cddbd v1.5.2PL0 Copyright (c) Steve Scherf et al.
# Submitted via: CDex 1.50
#
DISCID=2c11ca14
DTITLE=Шансон - Шансон встречает новый год
DYEAR=2008
DGENRE=
TTITLE0=Михаил Шуфутинский, Катя Голицына, Любовь Шепилова - Новый Год
TTITLE1=Влад Ясень - Старый год
TTITLE2=Ирина Аллегрова и Михаил Шуфутинский - Новогодние сны
TTITLE3=Попутчик - Оливье
TTITLE4=Борис Дрягилев - Все пройдет
TTITLE5=Григорий Заречный - Оловянный солдатик
TTITLE6=Игорь Кабаргин - Серебристый снег
TTITLE7=Мамрук-Бэнд - Новый год (ремикс)
TTITLE8=Георгиий Лысенко - Снег
TTITLE9=Марина Соболева и Павел Беккерман - Новый Год
TTITLE10=Геннадий Норд - Падает снег
TTITLE11=Геннадий Конышев - Снегурочка
TTITLE12=Сергей Грубов - Зима
TTITLE13=Марк Винокуров - Я соберу друзей
TTITLE14=Игорь Блюмин - Моей любимой - гитаре
TTITLE15=Валериан - Печурчка
TTITLE16=Дмитрий Персин - Карга
TTITLE17=Светлана Астахова и Александр Черкасов - Февраль
TTITLE18=Олеся Атланова - Письмо Деду Морозу
TTITLE19=Игорь Васильев - Ребенок
EXTD=YEAR: 2008
EXTT0=
EXTT1=
EXTT2=
EXTT3=
EXTT4=
EXTT5=
EXTT6=
EXTT7=
EXTT8=
EXTT9=
EXTT10=
EXTT11=
EXTT12=
EXTT13=
EXTT14=
EXTT15=
EXTT16=
EXTT17=
EXTT18=
EXTT19=
PLAYORDER=
